# xmcd
#
# Track frame offsets:
#	150
#	43125
#	63702
#	92592
#	117342
#	131517
#	159295
#	175645
#	211130
#	229595
#	251170
#	295795
#	311395
#	329825
#
# Disc length: 4610 seconds
# Revision: 0
# Processed by: cddbd v1.5.2PL0 Copyright (c) Steve Scherf et al.
# Submitted via: dBpowerAMP V12.0
#
DISCID=c512000e
DTITLE=John The Revelator - Blues Train To Thalia
DYEAR=2004
DGENRE=Blues
TTITLE0=Fool No More
TTITLE1=Like It This Way
TTITLE2=Spoonful
TTITLE3=Brown Sugar
TTITLE4=I'm Worried
TTITLE5=Something Inside Of Me
TTITLE6=Jumpin' The Gun
TTITLE7=Stormy Monday Blues
TTITLE8=Walking THe Dog
TTITLE9=Summertime
TTITLE10=Worried Dreams
TTITLE11=Three Hundred Pounds Of Joy
TTITLE12=I Ain't Superstitious
TTITLE13=Riding On The L&N
EXTD=
EXTT0=
EXTT1=
EXTT2=
EXTT3=
EXTT4=
EXTT5=
EXTT6=
EXTT7=
EXTT8=
EXTT9=
EXTT10=
EXTT11=
EXTT12=
EXTT13=
PLAYORDER=
